<svg width="148" height="39" viewBox="0 0 148 39" fill="none" xmlns="http://www.w3.org/2000/svg">
<g clip-path="url(#clip0_277_251)">
<g clip-path="url(#clip1_277_251)">
<path d="M25.326 19.0211H6.52197V17.0042H14.6592L6.52197 10.6484V3.5L15.9236 11.4289L25.326 3.5V10.6484L17.1888 17.0042H25.326V19.0211Z" fill="#8C2332"/>
<path d="M5.5087 27.8533L10.5337 22.1858H7.82801L2.19265 28.6794V22.1858H0V35.3417H2.19265V31.5264L4.00908 29.4894L8.06737 35.323L8.08047 35.3417H10.7408L5.5087 27.8533Z" fill="#414042"/>
<path d="M20.5254 24.859C20.3171 24.3312 20.0071 23.8583 19.6163 23.4727C19.1971 23.0727 18.7069 22.771 18.1763 22.5862C17.5664 22.3732 16.9288 22.2696 16.2884 22.2792H11.564V35.3184H13.7382V31.1543H16.0521C16.6816 31.1592 17.3084 31.0632 17.9124 30.8694C18.4645 30.6914 18.9811 30.402 19.4353 30.0163C19.8707 29.6434 20.2229 29.1679 20.4656 28.6253C20.7263 28.0197 20.8557 27.3568 20.8438 26.6879V26.6513C20.8515 26.0364 20.7431 25.4263 20.5254 24.859ZM13.7382 24.464H16.1192C16.7734 24.4276 17.4201 24.6288 17.9582 25.0361C18.1869 25.2378 18.3678 25.4965 18.4857 25.7904C18.6036 26.0843 18.655 26.4048 18.6355 26.7248V26.7648C18.6424 27.0738 18.5856 27.3805 18.4693 27.6624C18.3531 27.9443 18.1804 28.1942 17.9639 28.3937C17.4394 28.8411 16.7841 29.0661 16.1192 29.0272H13.7382V24.464Z" fill="#414042"/>
<path d="M29.8229 22.2375V29.7501C29.8229 30.9306 29.559 31.8283 29.038 32.4187C28.7549 32.7234 28.4166 32.9603 28.0447 33.1143C27.6728 33.2684 27.2755 33.3361 26.8783 33.3133C26.4759 33.3369 26.0735 33.2661 25.6983 33.1055C25.3232 32.945 24.984 32.6985 24.7038 32.3827C24.1817 31.766 23.9169 30.8497 23.9169 29.6593V22.2375H21.7393V29.7501C21.726 30.5966 21.848 31.4391 22.0995 32.2401C22.3178 32.9161 22.6689 33.5319 23.1284 34.0444C23.584 34.5368 24.1353 34.9112 24.7415 35.1399C25.4188 35.3891 26.13 35.5108 26.8447 35.4999C27.568 35.5108 28.2879 35.3892 28.9743 35.1399C29.5851 34.9108 30.1397 34.5324 30.5957 34.0335C31.0589 33.5076 31.413 32.8794 31.6342 32.1913C31.8911 31.3701 32.0149 30.5063 32.0002 29.6388V22.2373L29.8229 22.2375Z" fill="#414042"/>
</g>
<path d="M53.048 29.26C50.396 29.26 48.4113 28.5667 47.094 27.18C45.7767 25.776 45.118 23.6093 45.118 20.68C45.118 17.6293 45.7767 15.4193 47.094 14.05C48.4113 12.6807 50.396 11.996 53.048 11.996C55.7173 11.996 57.702 12.6807 59.002 14.05C60.3193 15.4193 60.978 17.6293 60.978 20.68C60.978 23.6093 60.3193 25.776 59.002 27.18C57.702 28.5667 55.7173 29.26 53.048 29.26ZM53.048 26.868C54.7987 26.868 56.0813 26.3913 56.896 25.438C57.728 24.4673 58.144 22.8813 58.144 20.68C58.144 18.3573 57.728 16.7367 56.896 15.818C56.0813 14.882 54.7987 14.414 53.048 14.414C51.3147 14.414 50.032 14.882 49.2 15.818C48.3853 16.7367 47.978 18.3573 47.978 20.68C47.978 22.8813 48.3853 24.4673 49.2 25.438C50.032 26.3913 51.3147 26.868 53.048 26.868ZM63.7415 29V12.256H66.2375L74.9735 24.58V12.256H77.7815V29H75.2855L66.5755 16.702V29H63.7415ZM81.0833 29V12.256H92.7573V14.466H83.9173V19.536H91.7953V21.72H83.9173V26.816H92.7573V29H81.0833ZM94.8582 29V26.79H97.2502V29H94.8582ZM100.025 29V12.256H102.859V19.952L109.983 12.256H113.259L107.097 19.016L113.519 29H110.503L105.329 20.81L102.859 23.462V29H100.025ZM116.275 29V12.256H123.737C125.019 12.256 126.077 12.4987 126.909 12.984C127.741 13.4693 128.356 14.1367 128.755 14.986C129.153 15.818 129.353 16.7713 129.353 17.846C129.353 19.51 128.833 20.8447 127.793 21.85C126.77 22.8553 125.383 23.358 123.633 23.358H119.109V29H116.275ZM119.109 21.122H123.113C124.239 21.122 125.089 20.8273 125.661 20.238C126.233 19.6487 126.519 18.8513 126.519 17.846C126.519 16.7713 126.241 15.9393 125.687 15.35C125.149 14.7607 124.335 14.466 123.243 14.466H119.109V21.122ZM138.761 29.26C136.455 29.26 134.661 28.7053 133.379 27.596C132.113 26.4867 131.481 24.8833 131.481 22.786V12.256H134.315V22.682C134.315 24.086 134.696 25.1347 135.459 25.828C136.239 26.5213 137.339 26.868 138.761 26.868C140.165 26.868 141.248 26.5213 142.011 25.828C142.791 25.1347 143.181 24.086 143.181 22.682V12.256H145.989V22.786C145.989 24.8833 145.356 26.4867 144.091 27.596C142.825 28.7053 141.049 29.26 138.761 29.26Z" fill="black"/>
</g>
<defs>
<clipPath id="clip0_277_251">
<rect width="148" height="39" fill="white"/>
</clipPath>
<clipPath id="clip1_277_251">
<rect width="32" height="32" fill="white" transform="translate(0 3.5)"/>
</clipPath>
</defs>
</svg>
